<svg width="24" height="24" viewBox="0 0 24 24" fill="none" xmlns="http://www.w3.org/2000/svg">
<path d="M12 3.30666C12.1659 3.45111 12.3597 3.62321 12.5751 3.82022C13.3049 4.4877 14.2754 5.43488 15.243 6.55585C16.213 7.67964 17.1627 8.95828 17.8661 10.2877C18.5725 11.6231 19 12.9526 19 14.1951C19 18.4276 15.6649 21 12 21C8.33508 21 5 18.4276 5 14.1951C5 12.9526 5.4275 11.6231 6.13393 10.2877C6.83726 8.95828 7.787 7.67964 8.757 6.55585C9.72457 5.43488 10.6951 4.4877 11.4249 3.82022C11.6403 3.62321 11.8341 3.45111 12 3.30666Z" stroke="white" stroke-width="2"/>
<path d="M15 14C15 15.875 13.5446 17 12 17" stroke="white" stroke-width="2"/>
</svg>
