<svg width="24" height="24" viewBox="0 0 24 24" fill="none" xmlns="http://www.w3.org/2000/svg">
<circle cx="12" cy="12" r="4" stroke="white" stroke-width="2"/>
<mask id="path-2-inside-1" fill="white">
<path d="M12 17C13.3261 17 14.5979 16.4732 15.5355 15.5355C16.4732 14.5979 17 13.3261 17 12C17 10.6739 16.4732 9.40215 15.5355 8.46447C14.5979 7.52678 13.3261 7 12 7L12 12L12 17Z"/>
</mask>
<path d="M12 17C13.3261 17 14.5979 16.4732 15.5355 15.5355C16.4732 14.5979 17 13.3261 17 12C17 10.6739 16.4732 9.40215 15.5355 8.46447C14.5979 7.52678 13.3261 7 12 7L12 12L12 17Z" fill="white" stroke="white" stroke-width="4" mask="url(#path-2-inside-1)"/>
<path d="M12 24V20.3077M12 3.69231V0M0 12H3.69231M20.3077 12H24M20.4853 20.4852L17.8744 17.8743M6.12556 6.1255L3.51471 3.51464M3.51471 20.4852L6.12556 17.8743M17.8744 6.1255L20.4853 3.51464" stroke="white" stroke-width="2"/>
</svg>
