<svg width="24" height="24" viewBox="0 0 24 24" fill="none" xmlns="http://www.w3.org/2000/svg">
<path opacity="0.4" d="M1.19232 20.8231C3.06895 20.129 4.31732 18.4839 5.23778 16.6727C6.12589 14.9252 6.7972 12.8401 7.42172 10.9003C7.44807 10.8185 7.47433 10.7369 7.50052 10.6557C8.16445 8.59544 8.77796 6.74388 9.55406 5.40023C10.3287 4.05909 11.1006 3.5 12 3.5C12.9254 3.5 13.6689 4.03583 14.3967 5.29731C15.1366 6.57973 15.7058 8.35515 16.3441 10.3726L16.3698 10.4538C16.9842 12.3963 17.6574 14.5245 18.6029 16.3511C19.5634 18.2067 20.8706 19.8845 22.8276 20.7452C22.8955 20.775 22.9447 20.8182 22.9725 20.8564C22.9981 20.8915 23 20.9131 23 20.9222C23 20.9652 22.9652 21 22.9222 21H1.0217C1.01686 21 1.01477 20.9992 1.01356 20.9987C1.01169 20.9979 1.00905 20.9963 1.00636 20.9936C1.00367 20.991 1.00209 20.9883 1.00129 20.9864C1.00078 20.9852 1 20.9831 1 20.9783L0.999998 20.9783C0.999977 20.9781 0.999833 20.9771 1.0014 20.973C1.00341 20.9676 1.00923 20.955 1.02372 20.9371C1.0551 20.8982 1.1133 20.8523 1.19231 20.8231L0.845415 19.8852L1.19232 20.8231Z" fill="white" stroke="white" stroke-width="2"/>
<path opacity="0.7" d="M1.1244 20.8405C4.88786 19.6409 6.76385 16.4361 8.17035 13.8763C8.25799 13.7168 8.34344 13.5604 8.4271 13.4074C9.04524 12.2764 9.56556 11.3243 10.1445 10.6084C10.7767 9.82661 11.342 9.5 12 9.5C12.6629 9.5 13.1662 9.80338 13.7134 10.5298C14.1857 11.1569 14.5939 11.9659 15.0904 12.9502C15.2133 13.1938 15.3416 13.4482 15.4776 13.7131C16.7991 16.2873 18.6683 19.4544 22.8902 20.8277C22.9315 20.8411 22.9624 20.8654 22.9806 20.8891C22.9974 20.9109 23 20.9268 23 20.9371C23 20.9718 22.9718 21 22.9371 21H1.04762C1.02132 21 1 20.9787 1 20.9524C1 20.9475 1.00058 20.9337 1.01919 20.91C1.03983 20.8839 1.0761 20.8559 1.1244 20.8405Z" fill="white" stroke="white" stroke-width="2"/>
<path d="M1.05469 20.9124C5.01062 20.0593 6.83443 18.8841 8.21208 17.9236C8.27047 17.8829 8.3272 17.8433 8.38246 17.8046C8.9719 17.3926 9.39457 17.0971 9.89322 16.8785C10.4056 16.6537 11.0317 16.5 12 16.5C12.9945 16.5 13.5985 16.6329 14.0716 16.8252C14.5415 17.0162 14.9283 17.28 15.5123 17.6783C15.55 17.704 15.5886 17.7303 15.628 17.7571C16.9465 18.6551 18.7589 19.812 22.9392 20.8758C22.9833 20.887 23 20.9216 23 20.9433C23 20.9746 22.9746 21 22.9433 21H1.03604C1.01614 21 1 20.9839 1 20.964C1 20.958 1.00141 20.9497 1.01063 20.9385C1.02059 20.9265 1.03568 20.9165 1.05469 20.9124Z" fill="white" stroke="white" stroke-width="2"/>
</svg>
