<svg width="24" height="24" viewBox="0 0 24 24" fill="none" xmlns="http://www.w3.org/2000/svg">
<rect x="3" y="3" width="18" height="18" stroke="white" stroke-width="2" stroke-linejoin="bevel"/>
<path d="M12 18C12.7879 18 13.5681 17.8448 14.2961 17.5433C15.0241 17.2417 15.6855 16.7998 16.2426 16.2426C16.7998 15.6855 17.2417 15.0241 17.5433 14.2961C17.8448 13.5681 18 12.7879 18 12C18 11.2121 17.8448 10.4319 17.5433 9.7039C17.2417 8.97595 16.7998 8.31451 16.2426 7.75736C15.6855 7.20021 15.0241 6.75825 14.2961 6.45672C13.5681 6.15519 12.7879 6 12 6L12 12L12 18Z" fill="white"/>
<path fill-rule="evenodd" clip-rule="evenodd" d="M12 2H2V22H12V18C8.68629 18 6 15.3137 6 12C6 8.68629 8.68629 6 12 6V2Z" fill="white"/>
</svg>
