<svg width="24" height="24" viewBox="0 0 24 24" fill="none" xmlns="http://www.w3.org/2000/svg">
<path d="M6 20.6667H7.33333V22H6V20.6667Z" fill="white"/>
<path d="M10 18H11.3333V19.3333H10V18Z" fill="white"/>
<path d="M6 14H7.33333V15.3333H6V14Z" fill="white"/>
<path d="M11.3333 11.3333H12.6667V12.6667H11.3333V11.3333Z" fill="white"/>
<path d="M16.6667 20.6667H18V22H16.6667V20.6667Z" fill="white"/>
<path d="M15.3333 15.3333H16.6667V16.6667H15.3333V15.3333Z" fill="white"/>
<path d="M19.3333 10H20.6667V11.3333H19.3333V10Z" fill="white"/>
<path d="M14 6H15.3333V7.33333H14V6Z" fill="white"/>
<path d="M7.33333 7.33333H8.66666V8.66667H7.33333V7.33333Z" fill="white"/>
<path d="M2 10H3.33333V11.3333H2V10Z" fill="white"/>
<path d="M3.33333 11.3333V10L4.66667 10V11.3333L3.33333 11.3333Z" fill="white"/>
<path d="M15.3333 19.3333V18H16.6667V19.3333H15.3333Z" fill="white"/>
<path d="M15.3333 8.66667V7.33333L16.6667 7.33333V8.66666L15.3333 8.66667Z" fill="white"/>
<path d="M3.33333 19.3333V18H4.66667V19.3333H3.33333Z" fill="white"/>
<path d="M7.33333 15.3333V14L8.66666 14V15.3333L7.33333 15.3333Z" fill="white"/>
<path d="M6 6V4.66667H7.33333V6H6Z" fill="white"/>
<path d="M11.3333 3.33333V2H12.6667V3.33333H11.3333Z" fill="white"/>
<path d="M10 10V8.66667H11.3333V10H10Z" fill="white"/>
<path d="M12.6667 15.3333V14H14V15.3333H12.6667Z" fill="white"/>
<path d="M10 20.6667V19.3333H11.3333V20.6667H10Z" fill="white"/>
<path d="M6 14H4.66667V12.6667H6L6 14Z" fill="white"/>
<path d="M11.3333 19.3333H10V18H11.3333V19.3333Z" fill="white"/>
<path d="M6 20.6667H4.66667L4.66667 19.3333L6 19.3333L6 20.6667Z" fill="white"/>
<path d="M16.6667 22H15.3333V20.6667H16.6667V22Z" fill="white"/>
<path d="M14 14H12.6667V12.6667H14L14 14Z" fill="white"/>
<path d="M10 10L8.66667 10L8.66666 8.66667L10 8.66667V10Z" fill="white"/>
<path d="M4.66667 7.33333L3.33334 7.33334V6L4.66667 6V7.33333Z" fill="white"/>
<path d="M10 4.66667H8.66666V3.33334H10V4.66667Z" fill="white"/>
<path d="M15.3333 7.33333H14V6H15.3333V7.33333Z" fill="white"/>
<path d="M2 22L2.00001 20.6667H3.33334L3.33333 22H2Z" fill="white"/>
<path d="M4.66667 15.3333V14H6V15.3333L4.66667 15.3333Z" fill="white"/>
<path d="M7.33333 20.6667L7.33334 19.3333H8.66667V20.6667L7.33333 20.6667Z" fill="white"/>
<path d="M8.66667 12.6667V11.3333H10V12.6667H8.66667Z" fill="white"/>
<path d="M2 10V8.66667H3.33333V10H2Z" fill="white"/>
<path d="M12.6667 18V16.6667H14V18H12.6667Z" fill="white"/>
<path d="M15.3333 12.6667V11.3333H16.6667V12.6667H15.3333Z" fill="white"/>
<path d="M11.3333 18L11.3333 16.6667H12.6667V18L11.3333 18Z" fill="white"/>
<path d="M8.66666 14L8.66667 12.6667H10V14L8.66666 14Z" fill="white"/>
<path d="M4.66667 18L4.66667 16.6667H6V18L4.66667 18Z" fill="white"/>
<path d="M2.00001 12.6667L2 11.3333H3.33333L3.33334 12.6667H2.00001Z" fill="white"/>
<path d="M11.3333 7.33334V6H12.6667V7.33334H11.3333Z" fill="white"/>
<path d="M6 8.66667V7.33334L7.33333 7.33333V8.66667L6 8.66667Z" fill="white"/>
<path d="M15.3333 22V20.6667H16.6667V22H15.3333Z" fill="white"/>
<path d="M14 12.6667V11.3333H15.3333V12.6667L14 12.6667Z" fill="white"/>
<path d="M15.3333 4.66667V3.33334H16.6667V4.66667H15.3333Z" fill="white"/>
<path d="M19.3333 10L19.3333 8.66667H20.6667L20.6667 10H19.3333Z" fill="white"/>
<path d="M18 16.6667V15.3333H19.3333V16.6667H18Z" fill="white"/>
<path d="M20.6667 22V20.6667H22V22H20.6667Z" fill="white"/>
<path d="M7.33333 8.66667L6 8.66667V7.33334L7.33333 7.33333V8.66667Z" fill="white"/>
<path d="M7.33333 20.6667H6L6 19.3333L7.33334 19.3333L7.33333 20.6667Z" fill="white"/>
<path d="M3.33334 16.6667L2 16.6667V15.3333L3.33334 15.3333V16.6667Z" fill="white"/>
<path d="M3.33333 11.3333H2V10H3.33333V11.3333Z" fill="white"/>
<path d="M8.66666 14L7.33333 14L7.33334 12.6667H8.66667L8.66666 14Z" fill="white"/>
<path d="M4.66667 18V19.3333H3.33333V18H4.66667Z" fill="white"/>
<path d="M10 12.6667V14L8.66666 14L8.66667 12.6667H10Z" fill="white"/>
<path d="M11.3333 18V19.3333H10V18H11.3333Z" fill="white"/>
<path d="M18 19.3333L18 20.6667H16.6667V19.3333H18Z" fill="white"/>
<path d="M12.6667 7.33334V8.66667H11.3333L11.3333 7.33334H12.6667Z" fill="white"/>
<path d="M15.3333 14L15.3333 15.3333L14 15.3333V14H15.3333Z" fill="white"/>
<path d="M18 10V11.3333L16.6667 11.3333V10H18Z" fill="white"/>
<path d="M4.66667 10V11.3333L3.33333 11.3333V10L4.66667 10Z" fill="white"/>
<path d="M14 19.3333H12.6667L12.6667 18H14L14 19.3333Z" fill="white"/>
<path d="M10 22H8.66667L8.66667 20.6667L10 20.6667L10 22Z" fill="white"/>
<path d="M3.33333 19.3333H2.00001V18H3.33333V19.3333Z" fill="white"/>
<path d="M22 7.33333H20.6667V6L22 6L22 7.33333Z" fill="white"/>
<path d="M11.3333 7.33334L10 7.33333V6L11.3333 6V7.33334Z" fill="white"/>
<path d="M22 19.3333L20.6667 19.3333V18L22 18V19.3333Z" fill="white"/>
<path d="M18 15.3333L16.6667 15.3333L16.6667 14H18L18 15.3333Z" fill="white"/>
<path d="M8.66667 16.6667H7.33334L7.33333 15.3333L8.66666 15.3333L8.66667 16.6667Z" fill="white"/>
<path d="M6.00001 11.3333H4.66667V10H6.00001V11.3333Z" fill="white"/>
<path d="M12.6667 12.6667H11.3333V11.3333H12.6667V12.6667Z" fill="white"/>
<path d="M18 10H16.6667L16.6667 8.66666L18 8.66667L18 10Z" fill="white"/>
<rect x="3" y="3" width="18" height="18" stroke="white" stroke-width="2"/>
</svg>
