<svg width="24" height="24" viewBox="0 0 24 24" fill="none" xmlns="http://www.w3.org/2000/svg">
<path d="M6.78948 19.6666H7.94737V20.8333H6.78948V19.6666Z" fill="white"/>
<path d="M10.2632 17.3333H11.4211V18.5H10.2632V17.3333Z" fill="white"/>
<path d="M6.78948 13.8333H7.94737V15H6.78948V13.8333Z" fill="white"/>
<path d="M11.4211 11.5H12.579V12.6666H11.4211V11.5Z" fill="white"/>
<path d="M16.0526 19.6666H17.2105V20.8333H16.0526V19.6666Z" fill="white"/>
<path d="M14.8947 15H16.0526V16.1666H14.8947V15Z" fill="white"/>
<path d="M18.3684 10.3333H19.5263V11.5H18.3684V10.3333Z" fill="white"/>
<path d="M13.7368 6.83331H14.8947V7.99998H13.7368V6.83331Z" fill="white"/>
<path d="M7.94737 7.99998H9.10527V9.16665H7.94737V7.99998Z" fill="white"/>
<path d="M3.3158 10.3333H4.47369V11.5H3.3158V10.3333Z" fill="white"/>
<path d="M4.47369 11.5V10.3333L5.63158 10.3333V11.5L4.47369 11.5Z" fill="white"/>
<path d="M14.8947 18.5V17.3333H16.0526V18.5H14.8947Z" fill="white"/>
<path d="M14.8947 9.16665V7.99998L16.0526 7.99998V9.16664L14.8947 9.16665Z" fill="white"/>
<path d="M4.47369 18.5V17.3333H5.63158V18.5H4.47369Z" fill="white"/>
<path d="M7.94737 15V13.8333L9.10527 13.8333V15L7.94737 15Z" fill="white"/>
<path d="M6.78948 6.83331V5.66665H7.94737V6.83331H6.78948Z" fill="white"/>
<path d="M11.4211 4.49998V3.33331H12.579V4.49998H11.4211Z" fill="white"/>
<path d="M10.2632 10.3333V9.16665H11.4211V10.3333H10.2632Z" fill="white"/>
<path d="M12.579 15V13.8333H13.7368V15H12.579Z" fill="white"/>
<path d="M10.2632 19.6666V18.5H11.4211V19.6666H10.2632Z" fill="white"/>
<path d="M6.78948 13.8333H5.63159V12.6666H6.78948L6.78948 13.8333Z" fill="white"/>
<path d="M11.4211 18.5H10.2632V17.3333H11.4211V18.5Z" fill="white"/>
<path d="M6.78948 19.6666H5.63159L5.63158 18.5L6.78948 18.5L6.78948 19.6666Z" fill="white"/>
<path d="M16.0526 20.8333H14.8947V19.6666H16.0526V20.8333Z" fill="white"/>
<path d="M13.7368 13.8333H12.579V12.6666H13.7369L13.7368 13.8333Z" fill="white"/>
<path d="M10.2632 10.3333L9.10527 10.3333L9.10527 9.16665L10.2632 9.16665V10.3333Z" fill="white"/>
<path d="M5.63159 7.99998L4.47369 7.99998V6.83332L5.63159 6.83331V7.99998Z" fill="white"/>
<path d="M10.2632 5.66665H9.10527V4.49998H10.2632V5.66665Z" fill="white"/>
<path d="M14.8947 7.99998H13.7368V6.83331H14.8947V7.99998Z" fill="white"/>
<path d="M3.3158 20.8333L3.3158 19.6666H4.47369L4.47369 20.8333H3.3158Z" fill="white"/>
<path d="M5.63159 15V13.8333H6.78948V15L5.63159 15Z" fill="white"/>
<path d="M7.94737 19.6666L7.94738 18.5H9.10527V19.6666L7.94737 19.6666Z" fill="white"/>
<path d="M9.10527 12.6666V11.5H10.2632V12.6666H9.10527Z" fill="white"/>
<path d="M3.3158 10.3333V9.16665H4.47369V10.3333H3.3158Z" fill="white"/>
<path d="M12.579 17.3333V16.1666H13.7369V17.3333H12.579Z" fill="white"/>
<path d="M14.8947 12.6666V11.5H16.0526V12.6666H14.8947Z" fill="white"/>
<path d="M11.4211 17.3333L11.4211 16.1666H12.579V17.3333L11.4211 17.3333Z" fill="white"/>
<path d="M9.10527 13.8333L9.10527 12.6666H10.2632V13.8333L9.10527 13.8333Z" fill="white"/>
<path d="M5.63158 17.3333L5.63159 16.1666H6.78948V17.3333L5.63158 17.3333Z" fill="white"/>
<path d="M3.3158 12.6666L3.3158 11.5H4.47369L4.47369 12.6666H3.3158Z" fill="white"/>
<path d="M11.4211 7.99998V6.83332H12.579V7.99998H11.4211Z" fill="white"/>
<path d="M6.78948 9.16665V7.99998L7.94737 7.99998V9.16665L6.78948 9.16665Z" fill="white"/>
<path d="M14.8947 20.8333V19.6666H16.0526V20.8333H14.8947Z" fill="white"/>
<path d="M13.7369 12.6666V11.5H14.8947V12.6666L13.7369 12.6666Z" fill="white"/>
<path d="M14.8947 5.66665V4.49998H16.0526V5.66665H14.8947Z" fill="white"/>
<path d="M18.3684 10.3333L18.3684 9.16665H19.5263L19.5263 10.3333H18.3684Z" fill="white"/>
<path d="M17.2105 16.1666V15H18.3684V16.1666H17.2105Z" fill="white"/>
<path d="M19.5263 20.8333V19.6666H20.6842V20.8333H19.5263Z" fill="white"/>
<path d="M7.94737 9.16665L6.78948 9.16665V7.99998L7.94737 7.99998V9.16665Z" fill="white"/>
<path d="M7.94737 19.6666H6.78948L6.78948 18.5L7.94738 18.5L7.94737 19.6666Z" fill="white"/>
<path d="M4.47369 16.1666L3.3158 16.1666V15L4.47369 15V16.1666Z" fill="white"/>
<path d="M4.47369 11.5H3.3158V10.3333H4.47369V11.5Z" fill="white"/>
<path d="M9.10527 13.8333L7.94737 13.8333L7.94738 12.6666H9.10527L9.10527 13.8333Z" fill="white"/>
<path d="M5.63158 17.3333V18.5H4.47369V17.3333H5.63158Z" fill="white"/>
<path d="M10.2632 12.6666V13.8333L9.10527 13.8333L9.10527 12.6666H10.2632Z" fill="white"/>
<path d="M11.4211 17.3333V18.5H10.2632V17.3333H11.4211Z" fill="white"/>
<path d="M17.2105 18.5L17.2105 19.6666H16.0526V18.5H17.2105Z" fill="white"/>
<path d="M12.579 7.99998V9.16665H11.4211L11.4211 7.99998H12.579Z" fill="white"/>
<path d="M14.8947 13.8333L14.8947 15L13.7368 15V13.8333H14.8947Z" fill="white"/>
<path d="M17.2105 10.3333V11.5L16.0526 11.5V10.3333H17.2105Z" fill="white"/>
<path d="M5.63158 10.3333V11.5L4.47369 11.5V10.3333L5.63158 10.3333Z" fill="white"/>
<path d="M13.7369 18.5H12.579L12.579 17.3333H13.7369L13.7369 18.5Z" fill="white"/>
<path d="M10.2632 20.8333H9.10528L9.10527 19.6666L10.2632 19.6666L10.2632 20.8333Z" fill="white"/>
<path d="M4.47369 18.5H3.3158V17.3333H4.47369V18.5Z" fill="white"/>
<path d="M20.6842 7.99998H19.5263V6.83331L20.6842 6.83331L20.6842 7.99998Z" fill="white"/>
<path d="M11.4211 7.99998L10.2632 7.99998V6.83331L11.4211 6.83332V7.99998Z" fill="white"/>
<path d="M20.6842 18.5L19.5263 18.5V17.3333L20.6842 17.3333V18.5Z" fill="white"/>
<path d="M17.2105 15L16.0526 15L16.0526 13.8333H17.2105L17.2105 15Z" fill="white"/>
<path d="M9.10528 16.1666H7.94738L7.94737 15L9.10527 15L9.10528 16.1666Z" fill="white"/>
<path d="M6.78949 11.5H5.63158V10.3333H6.78949V11.5Z" fill="white"/>
<path d="M12.579 12.6666H11.4211V11.5H12.579V12.6666Z" fill="white"/>
<path d="M17.2105 10.3333H16.0526L16.0526 9.16664L17.2105 9.16665L17.2105 10.3333Z" fill="white"/>
<rect x="3" y="3" width="18" height="18" stroke="white" stroke-width="2"/>
</svg>
