<svg width="24" height="24" viewBox="0 0 24 24" fill="none" xmlns="http://www.w3.org/2000/svg">
<path d="M5 8.08485L12 4.14735L19 8.08485V15.9152L12 19.8527L5 15.9152V8.08485Z" stroke="white" stroke-width="2"/>
<path d="M12 10L14 11V13L12 14L10 13V11L12 10Z" fill="white"/>
<path d="M20.3134 5.07523L22 8.28453L18.9478 10.0579L17.2612 6.8486L20.3134 5.07523Z" fill="white"/>
<path d="M5.05224 13.9421L6.73883 17.1514L3.68659 18.9248L2.00001 15.7155L5.05224 13.9421Z" fill="white"/>
<path d="M10.2564 1H13.7436V4.66667H10.2564V1Z" fill="white"/>
<path d="M10.2564 19.3333H13.7436V23H10.2564V19.3333Z" fill="white"/>
<path d="M3.68658 5.07521L2 8.2845L5.05223 10.0579L6.73882 6.84858L3.68658 5.07521Z" fill="white"/>
<path d="M18.9478 13.9421L17.2612 17.1514L20.3134 18.9247L22 15.7154L18.9478 13.9421Z" fill="white"/>
</svg>
