<svg width="24" height="24" viewBox="0 0 24 24" fill="none" xmlns="http://www.w3.org/2000/svg">
<g clip-path="url(#clip0)">
<path d="M7.60926 4.99952L14.3346 11.7248L11.2674 14.792C10.109 15.9504 9.52979 16.5296 8.86492 16.7543C8.24207 16.9647 7.56735 16.9647 6.9445 16.7543C6.27963 16.5296 5.70044 15.9504 4.54205 14.792V14.792C3.38366 13.6337 2.80447 13.0545 2.57985 12.3896C2.36942 11.7667 2.36942 11.092 2.57985 10.4692C2.80447 9.80431 3.38366 9.22511 4.54205 8.06672L7.60926 4.99952ZM7.60926 4.99952L5.64771 3.03796" stroke="white" stroke-width="2"/>
<path d="M2.30655 11.6935L14.4341 11.5591L9.22279 16.7704L7.09711 17.0971L4.69847 14.6985L2.30655 11.6935Z" fill="white"/>
<path d="M17 13C17 13 21 16.4878 21 19.7073C21 22.3902 19.0595 24 17 24C14.9405 24 13 22.3902 13 19.7073C13 16.4878 17 13 17 13Z" fill="white"/>
</g>
<defs>
<clipPath id="clip0">
<rect width="24" height="24" fill="white"/>
</clipPath>
</defs>
</svg>
